<svg xmlns="http://www.w3.org/2000/svg" version="1.1" xmlns:xlink="http://www.w3.org/1999/xlink" xmlns:svgjs="http://svgjs.dev/svgjs" width="1500" height="1500" viewBox="0 0 1500 1500"><rect width="1500" height="1500" fill="#000000"></rect><g transform="matrix(0.6666666666666666,0,0,0.6666666666666666,250,246.54885999832965)"><svg viewBox="0 0 280 281" data-background-color="#000000" preserveAspectRatio="xMidYMid meet" height="1505" width="1500" xmlns="http://www.w3.org/2000/svg" xmlns:xlink="http://www.w3.org/1999/xlink"><g id="tight-bounds" transform="matrix(1,0,0,1,0,0.49977110345787423)"><svg viewBox="0 0 280 280" height="280" width="280"><g><svg viewBox="0 0 280 280" height="280" width="280"><g><svg viewBox="0 0 280 280" height="280" width="280"><g id="textblocktransform"><svg viewBox="0 0 280 280" height="280" width="280" id="textblock"><g><svg viewBox="0 0 280 280" height="280" width="280"><g transform="matrix(1,0,0,1,44.30488227942058,44.30488227942058)"><svg viewBox="0 0 191.39023544115884 191.39023544115884" height="191.39023544115884" width="191.39023544115884"><g id="icon-0"><circle r="96" cx="95.69511772057942" cy="95.69511772057942" fill="#c4f649" data-fill-palette-color="accent"></circle><svg xmlns="http://www.w3.org/2000/svg" xmlns:xlink="http://www.w3.org/1999/xlink" version="1.1" viewBox="60.085 46.719 135.834 167.78300000000002" x="28.70853531617383" y="28.70853531617383" height="133.9731648088112" width="133.9731648088112" class="icon-jxe-0" data-fill-palette-color="quaternary" id="jxe-0"><path d="M109.952 187.187H102.272V194.867C102.272 200.627 105.446 206.028 111.002 209.715 115.635 212.787 121.677 214.477 127.975 214.502 142.413 214.502 153.728 205.926 153.728 194.943V187.263H146.048zM128 206.797H127.975C118.016 206.797 109.927 201.446 109.952 194.868L146.048 194.919C146.048 201.498 137.959 206.798 128 206.798z" fill="#000000" data-fill-palette-color="quaternary"></path><path d="M191.053 152.013C189.671 150.605 188.365 149.632 187.879 149.197 187.521 148.89 187.316 148.736 186.983 148.429A15.4 15.4 0 0 1 184.679 145.715C183.245 143.59 181.453 140.032 179.994 134.118S177.434 119.935 177.434 108.543C177.434 107.314 177.434 106.034 177.485 104.729V103.372C177.485 87.884 172.109 73.855 163.328 63.564 154.573 53.299 142.233 46.719 128.64 46.719 121.754 46.719 115.2 48.409 109.312 51.429 100.48 55.96 93.133 63.41 87.987 72.626S79.872 92.824 79.795 104.601C79.718 120.601 78.464 129.996 76.442 136.064 75.418 139.111 74.266 141.338 72.807 143.385 71.374 145.458 69.633 147.353 67.457 149.554 66.433 150.655 64.667 151.96 62.952 154.341 62.107 155.519 61.365 156.978 60.853 158.642S60.085 162.149 60.085 164.172C60.085 168.831 62.031 173.081 65.128 176.076A17.2 17.2 0 0 0 77.16 180.94H180.098C182.402 180.94 184.629 180.479 186.626 179.609 189.621 178.278 192.002 176 193.564 173.311 195.125 170.597 195.893 167.5 195.919 164.274V163.993C195.919 161.817 195.535 159.795 194.895 158.054 193.948 155.417 192.437 153.421 191.055 152.012zM185.677 164.121C185.652 166.4 184.934 168.089 184.039 169.087 183.578 169.599 183.092 169.983 182.452 170.239 181.838 170.52 181.07 170.7 180.097 170.7H77.159A6.98 6.98 0 0 1 72.295 168.754C71.066 167.551 70.35 165.963 70.35 164.171 70.35 162.993 70.503 162.174 70.657 161.611 70.938 160.766 71.22 160.28 71.86 159.563 72.475 158.846 73.498 157.976 74.753 156.722 77.057 154.393 79.258 152.037 81.204 149.221 84.173 144.997 86.426 139.826 87.834 132.863 89.267 125.874 89.959 116.991 90.035 104.626 90.112 91.186 94.643 79.103 101.734 70.527 105.267 66.252 109.44 62.847 113.971 60.517 118.528 58.187 123.443 56.933 128.64 56.933 138.854 56.933 148.378 61.848 155.52 70.194S167.245 90.264 167.245 103.346V104.498C167.22 105.88 167.194 107.211 167.194 108.517 167.194 126.872 169.882 138.341 173.082 145.688 174.695 149.349 176.435 151.986 177.997 153.829A19.4 19.4 0 0 0 180.122 156.005C180.711 156.542 181.223 156.927 181.325 157.029 181.939 157.541 182.477 157.951 182.989 158.411 183.757 159.077 184.423 159.793 184.883 160.638S185.676 162.43 185.702 163.966L185.677 164.12z" fill="#000000" data-fill-palette-color="quaternary"></path></svg></g></svg></g><g id="text-0"><path d="M9.095 103.954l0.806-2.044c0.158-0.401 0.3-0.644 0.427-0.729 0.126-0.085 0.39-0.049 0.79 0.109v0l20.092 7.93c0.388 0.153 0.61 0.305 0.664 0.455 0.046 0.154-0.009 0.428-0.164 0.822v0l-0.733 1.859c-0.102 0.259-0.148 0.465-0.138 0.619 0.014 0.162 0.169 0.302 0.465 0.418v0l0.61 0.241c0.284 0.112 0.477 0.135 0.582 0.069 0.104-0.066 0.215-0.246 0.332-0.542v0l3.266-8.275c0.112-0.284 0.15-0.489 0.115-0.617-0.037-0.122-0.204-0.241-0.5-0.358v0l-0.508-0.2c-0.253-0.1-0.444-0.139-0.573-0.119-0.135 0.018-0.254 0.156-0.356 0.415v0l-1.022 2.588c-0.131 0.333-0.253 0.524-0.365 0.572-0.12 0.052-0.341 0.015-0.661-0.111v0l-17.271-6.817c-0.838-0.331-1.262-0.594-1.27-0.79-0.006-0.202 0.203-0.361 0.627-0.479v0l27.098-7.791c0.194-0.059 0.349-0.136 0.466-0.233 0.116-0.097 0.227-0.277 0.332-0.542v0l0.04-0.102c0.088-0.222 0.064-0.388-0.07-0.498-0.137-0.104-0.307-0.196-0.511-0.277v0l-22.384-8.835c-0.37-0.146-0.588-0.289-0.654-0.429-0.068-0.134-0.032-0.379 0.109-0.737v0l0.847-2.145c0.117-0.296 0.134-0.492 0.051-0.589-0.089-0.099-0.275-0.205-0.559-0.317v0l-0.629-0.248c-0.247-0.097-0.427-0.065-0.54 0.097-0.105 0.158-0.2 0.345-0.285 0.56v0l-3.106 7.869c-0.139 0.351-0.15 0.607-0.035 0.766 0.115 0.159 0.342 0.306 0.681 0.44v0l0.37 0.146c0.284 0.112 0.499 0.036 0.645-0.227 0.138-0.259 0.255-0.512 0.353-0.758v0l0.66-1.674c0.144-0.364 0.277-0.585 0.401-0.664 0.126-0.085 0.378-0.054 0.754 0.094v0l15.089 5.956c0.684 0.27 1.035 0.501 1.052 0.693 0.023 0.194-0.158 0.347-0.545 0.459v0l-22.969 6.482c-0.454 0.12-0.783 0.243-0.99 0.368-0.204 0.119-0.436 0.508-0.696 1.168v0l-2.043 5.177c-0.117 0.296-0.134 0.492-0.051 0.589 0.087 0.105 0.278 0.217 0.573 0.334v0l0.509 0.2c0.228 0.09 0.399 0.118 0.512 0.085 0.107-0.036 0.21-0.181 0.31-0.433z" fill="#a5b68d" data-fill-palette-color="primary"></path><path d="M46.561 65.047v0c-0.723-0.612-1.397-1.273-2.02-1.983-0.623-0.71-1.11-1.443-1.46-2.199-0.35-0.765-0.493-1.541-0.426-2.327 0.062-0.781 0.416-1.553 1.063-2.317v0c0.861-1.017 1.828-1.534 2.903-1.553 1.07-0.023 2.187 0.288 3.351 0.934 1.173 0.645 2.336 1.456 3.489 2.432v0c0.728 0.617 1.404 1.28 2.027 1.99 0.618 0.706 1.103 1.441 1.453 2.207 0.35 0.756 0.491 1.527 0.425 2.313-0.066 0.786-0.423 1.561-1.069 2.324v0c-0.856 1.012-1.822 1.527-2.897 1.546-1.07 0.023-2.189-0.286-3.357-0.927-1.163-0.646-2.324-1.459-3.482-2.44zM44.637 68.459v0c1.305 1.105 2.716 1.878 4.234 2.321 1.514 0.448 3.022 0.461 4.524 0.04 1.507-0.426 2.894-1.388 4.161-2.886v0c1.272-1.502 1.981-3.038 2.128-4.606 0.152-1.564-0.154-3.09-0.917-4.578-0.763-1.488-1.891-2.864-3.383-4.127v0c-1.305-1.105-2.716-1.878-4.234-2.321-1.518-0.443-3.028-0.453-4.531-0.032-1.503 0.421-2.89 1.383-4.161 2.885v0c-1.267 1.497-1.977 3.033-2.127 4.606-0.152 1.564 0.156 3.088 0.923 4.571 0.763 1.488 1.891 2.864 3.383 4.127z" fill="#a5b68d" data-fill-palette-color="primary"></path><path d="M82.226 41.643v0c-0.041-0.165-0.1-0.257-0.177-0.276-0.081-0.025-0.195-0.015-0.341 0.029v0l-0.596 0.168c-0.205 0.052-0.326 0.111-0.362 0.175-0.032 0.07-0.033 0.204-0.003 0.4v0c0.131 0.754 0.131 1.404 0 1.952-0.14 0.546-0.426 0.967-0.858 1.263v0c-0.405 0.277-0.821 0.362-1.248 0.253-0.428-0.108-0.848-0.463-1.26-1.065v0l-7.069-10.314c-0.161-0.235-0.209-0.411-0.145-0.528 0.07-0.12 0.209-0.252 0.417-0.394v0l3.329-2.281c0.18-0.124 0.296-0.231 0.346-0.322 0.049-0.082 0.011-0.212-0.113-0.393v0l-0.539-0.787c-0.146-0.213-0.273-0.327-0.379-0.342-0.107-0.015-0.259 0.045-0.456 0.179v0l-3.353 2.299c-0.191 0.131-0.356 0.208-0.494 0.229-0.132 0.018-0.271-0.079-0.417-0.292v0l-2.276-3.321c-0.202-0.295-0.435-0.353-0.697-0.173v0l-0.82 0.562c-0.219 0.15-0.332 0.272-0.34 0.365-0.004 0.099 0.03 0.249 0.103 0.449v0c0.397 1.013 0.687 1.835 0.869 2.464 0.183 0.63 0.244 1.142 0.185 1.536-0.054 0.39-0.229 0.739-0.524 1.046-0.296 0.307-0.714 0.646-1.255 1.017v0c-0.191 0.131-0.301 0.235-0.33 0.311-0.032 0.07 0.017 0.201 0.149 0.392v0l0.562 0.82c0.135 0.197 0.257 0.298 0.365 0.304 0.099 0.004 0.256-0.067 0.469-0.213v0l1.795-1.23c0.18-0.124 0.334-0.169 0.462-0.136 0.123 0.028 0.247 0.132 0.37 0.312v0l7.496 10.938c0.566 0.825 1.283 1.362 2.152 1.61 0.863 0.252 1.839 0.005 2.927-0.74v0c0.787-0.539 1.364-1.152 1.73-1.837 0.366-0.685 0.564-1.411 0.592-2.177 0.033-0.761-0.056-1.512-0.266-2.252z" fill="#a5b68d" data-fill-palette-color="primary"></path><path d="M90.598 12.877v0c0.224 0.553 0.62 0.95 1.189 1.191 0.561 0.238 1.121 0.244 1.68 0.018v0c0.565-0.229 0.964-0.622 1.196-1.18 0.235-0.567 0.241-1.127 0.017-1.68v0c-0.229-0.565-0.623-0.967-1.184-1.204-0.552-0.234-1.111-0.237-1.676-0.009v0c-0.559 0.226-0.959 0.616-1.199 1.171-0.244 0.563-0.252 1.127-0.023 1.693zM91.806 21.673l2.295-0.928c0.27-0.109 0.46-0.029 0.569 0.242v0l5.272 13.04c0.072 0.178 0.106 0.307 0.103 0.387-0.01 0.082-0.11 0.162-0.3 0.239v0l-2.11 0.853c-0.203 0.082-0.335 0.171-0.396 0.267-0.058 0.088-0.04 0.245 0.052 0.473v0l0.384 0.949c0.072 0.178 0.155 0.277 0.248 0.296 0.097 0.011 0.244-0.024 0.441-0.103v0l8.312-3.361c0.16-0.065 0.244-0.131 0.252-0.198 0.002-0.065-0.029-0.178-0.093-0.337v0l-0.455-1.125c-0.065-0.16-0.131-0.244-0.198-0.252-0.07-0.015-0.185 0.011-0.345 0.075v0l-2.295 0.928c-0.135 0.055-0.24 0.061-0.314 0.02-0.074-0.042-0.141-0.136-0.2-0.284v0l-6.073-15.021c-0.06-0.147-0.12-0.234-0.18-0.259-0.057-0.034-0.153-0.024-0.288 0.03v0l-5.382 2.176c-0.27 0.109-0.346 0.311-0.226 0.606v0l0.413 1.023c0.067 0.166 0.127 0.27 0.181 0.313 0.057 0.034 0.168 0.018 0.333-0.049z" fill="#a5b68d" data-fill-palette-color="primary"></path><path d="M127.249 26.65l-1.88-13.678c-0.028-0.204-0.021-0.348 0.021-0.435 0.042-0.086 0.161-0.143 0.358-0.169v0l4.057-0.558c0.256-0.035 0.41-0.083 0.462-0.143 0.053-0.054 0.062-0.209 0.026-0.465v0l-0.127-0.926c-0.036-0.263-0.103-0.411-0.201-0.444-0.106-0.039-0.28-0.042-0.523-0.008v0l-3.969 0.545c-0.197 0.027-0.327 0.005-0.39-0.067-0.063-0.072-0.107-0.196-0.132-0.373v0l-0.08-0.581c-0.211-1.536-0.264-2.85-0.16-3.941 0.112-1.086 0.419-1.937 0.923-2.555 0.51-0.619 1.248-0.994 2.213-1.127v0c0.945-0.13 1.62-0.112 2.024 0.053 0.405 0.172 0.622 0.366 0.652 0.583v0c0.033 0.243-0.001 0.458-0.102 0.646-0.107 0.195-0.208 0.407-0.304 0.634-0.096 0.227-0.119 0.525-0.068 0.892v0c0.069 0.506 0.32 0.896 0.753 1.171 0.432 0.275 0.96 0.37 1.584 0.284v0c0.643-0.088 1.134-0.366 1.471-0.835 0.337-0.468 0.452-1.089 0.346-1.863v0c-0.095-0.689-0.441-1.307-1.038-1.854-0.589-0.541-1.367-0.943-2.332-1.205-0.965-0.255-2.058-0.299-3.279-0.131v0c-1.576 0.216-2.846 0.729-3.812 1.537-0.967 0.802-1.638 1.834-2.013 3.096-0.376 1.256-0.455 2.678-0.237 4.266v0l0.19 1.379c0.032 0.23 0.028 0.374-0.011 0.433-0.045 0.06-0.176 0.104-0.393 0.134v0l-2.304 0.317c-0.184 0.025-0.308 0.069-0.373 0.131-0.066 0.056-0.086 0.179-0.06 0.37v0l0.156 1.132c0.026 0.19 0.075 0.304 0.147 0.341 0.066 0.044 0.188 0.054 0.365 0.03v0l2.344-0.322c0.23-0.032 0.374-0.005 0.432 0.081 0.051 0.08 0.092 0.235 0.124 0.465v0l1.893 13.776c0.024 0.177 0.022 0.305-0.007 0.383-0.023 0.077-0.133 0.129-0.33 0.155v0l-2.354 0.324c-0.158 0.022-0.279 0.062-0.365 0.12-0.086 0.052-0.117 0.17-0.091 0.354v0l0.154 1.123c0.027 0.197 0.068 0.322 0.122 0.374 0.048 0.054 0.17 0.067 0.366 0.04v0l9.887-1.358c0.217-0.03 0.363-0.083 0.44-0.161 0.076-0.077 0.099-0.231 0.067-0.461v0l-0.145-1.054c-0.027-0.197-0.118-0.301-0.274-0.313-0.156-0.019-0.32-0.016-0.491 0.007v0l-3.052 0.42c-0.289 0.04-0.465 0.027-0.527-0.038-0.062-0.065-0.114-0.242-0.153-0.531z" fill="#a5b68d" data-fill-palette-color="primary"></path><path d="M153.869 2.599v0c-0.044 0.595 0.136 1.126 0.54 1.595 0.398 0.461 0.898 0.714 1.499 0.758v0c0.608 0.045 1.139-0.132 1.594-0.53 0.462-0.405 0.714-0.904 0.758-1.499v0c0.045-0.608-0.132-1.143-0.529-1.604-0.392-0.454-0.892-0.704-1.5-0.748v0c-0.601-0.044-1.132 0.129-1.593 0.52-0.468 0.397-0.724 0.9-0.769 1.508zM151.065 11.024l2.468 0.182c0.291 0.021 0.425 0.178 0.404 0.468v0l-1.033 14.027c-0.014 0.192-0.04 0.323-0.079 0.393-0.045 0.07-0.17 0.097-0.375 0.082v0l-2.27-0.167c-0.218-0.016-0.376 0.006-0.473 0.064-0.09 0.053-0.144 0.202-0.163 0.447v0l-0.075 1.021c-0.014 0.192 0.017 0.317 0.092 0.376 0.083 0.053 0.229 0.087 0.441 0.102v0l8.941 0.659c0.172 0.013 0.276-0.01 0.314-0.067 0.031-0.058 0.053-0.172 0.066-0.344v0l0.089-1.209c0.013-0.172-0.01-0.276-0.067-0.314-0.057-0.044-0.171-0.072-0.342-0.085v0l-2.469-0.182c-0.145-0.011-0.242-0.051-0.29-0.121-0.048-0.07-0.066-0.184-0.054-0.343v0l1.191-16.158c0.012-0.159-0.004-0.263-0.047-0.313-0.036-0.056-0.126-0.089-0.272-0.099v0l-5.789-0.427c-0.291-0.021-0.448 0.126-0.471 0.444v0l-0.081 1.1c-0.013 0.178-0.005 0.299 0.023 0.36 0.036 0.056 0.143 0.09 0.321 0.104z" fill="#a5b68d" data-fill-palette-color="primary"></path><path d="M183.594 8.254l2.045 0.802c0.401 0.157 0.644 0.299 0.731 0.425 0.086 0.126 0.05 0.39-0.108 0.791v0l-7.887 20.108c-0.152 0.389-0.304 0.611-0.453 0.666-0.154 0.047-0.428-0.008-0.823-0.163v0l-1.86-0.73c-0.259-0.102-0.466-0.147-0.619-0.136-0.162 0.015-0.302 0.17-0.418 0.466v0l-0.239 0.611c-0.111 0.284-0.134 0.478-0.068 0.582 0.066 0.104 0.247 0.214 0.543 0.331v0l8.282 3.248c0.284 0.111 0.49 0.149 0.617 0.114 0.122-0.038 0.24-0.205 0.356-0.501v0l0.2-0.509c0.099-0.253 0.139-0.444 0.118-0.573-0.018-0.135-0.157-0.254-0.416-0.355v0l-2.591-1.016c-0.333-0.131-0.524-0.252-0.573-0.364-0.052-0.12-0.016-0.341 0.11-0.661v0l6.781-17.286c0.329-0.839 0.591-1.263 0.787-1.271 0.202-0.006 0.362 0.202 0.48 0.626v0l7.849 27.081c0.059 0.194 0.137 0.349 0.234 0.466 0.097 0.116 0.278 0.226 0.543 0.33v0l0.102 0.04c0.222 0.087 0.388 0.063 0.498-0.072 0.104-0.137 0.195-0.308 0.275-0.511v0l8.788-22.403c0.145-0.37 0.288-0.588 0.427-0.654 0.134-0.069 0.379-0.033 0.737 0.107v0l2.147 0.842c0.296 0.116 0.492 0.133 0.589 0.05 0.099-0.089 0.204-0.276 0.316-0.56v0l0.247-0.629c0.097-0.247 0.064-0.427-0.098-0.54-0.158-0.105-0.345-0.2-0.561-0.284v0l-7.875-3.089c-0.352-0.138-0.607-0.149-0.766-0.034-0.159 0.116-0.305 0.343-0.439 0.683v0l-0.145 0.37c-0.111 0.284-0.035 0.499 0.228 0.644 0.259 0.137 0.512 0.254 0.759 0.351v0l1.675 0.657c0.364 0.143 0.586 0.276 0.665 0.4 0.086 0.126 0.055 0.377-0.093 0.754v0l-5.923 15.102c-0.269 0.685-0.499 1.036-0.691 1.053-0.194 0.023-0.347-0.158-0.459-0.544v0l-6.532-22.955c-0.121-0.453-0.245-0.783-0.37-0.989-0.119-0.203-0.509-0.435-1.169-0.693v0l-5.182-2.033c-0.296-0.116-0.492-0.133-0.59-0.05-0.105 0.087-0.216 0.278-0.332 0.575v0l-0.199 0.509c-0.09 0.228-0.117 0.399-0.084 0.512 0.036 0.107 0.181 0.21 0.434 0.309z" fill="#a5b68d" data-fill-palette-color="primary"></path><path d="M222.581 45.636v0c0.611-0.725 1.27-1.399 1.978-2.024 0.709-0.625 1.441-1.113 2.196-1.464 0.765-0.352 1.54-0.496 2.327-0.431 0.781 0.06 1.554 0.413 2.319 1.058v0c1.018 0.858 1.538 1.825 1.559 2.9 0.025 1.07-0.284 2.187-0.927 3.352-0.643 1.174-1.451 2.339-2.425 3.494v0c-0.615 0.73-1.277 1.407-1.985 2.032-0.704 0.62-1.439 1.106-2.204 1.458-0.755 0.351-1.526 0.495-2.312 0.43-0.786-0.065-1.562-0.419-2.327-1.065v0c-1.013-0.854-1.531-1.819-1.552-2.894-0.025-1.07 0.281-2.19 0.92-3.358 0.644-1.165 1.455-2.327 2.433-3.488zM219.165 43.72v0c-1.102 1.307-1.873 2.72-2.312 4.239-0.445 1.515-0.455 3.023-0.03 4.524 0.429 1.506 1.394 2.891 2.893 4.155v0c1.505 1.268 3.042 1.974 4.611 2.118 1.565 0.149 3.09-0.16 4.577-0.926 1.487-0.766 2.86-1.897 4.119-3.392v0c1.102-1.307 1.873-2.72 2.312-4.239 0.44-1.519 0.447-3.029 0.023-4.531-0.424-1.502-1.389-2.887-2.893-4.155v0c-1.5-1.264-3.037-1.97-4.611-2.118-1.565-0.149-3.088 0.162-4.569 0.933-1.487 0.766-2.86 1.897-4.12 3.392z" fill="#a5b68d" data-fill-palette-color="primary"></path><path d="M246.061 81.253v0c0.165-0.041 0.257-0.1 0.276-0.178 0.025-0.081 0.015-0.195-0.03-0.341v0l-0.169-0.596c-0.053-0.205-0.112-0.326-0.177-0.362-0.07-0.032-0.204-0.033-0.399-0.002v0c-0.753 0.133-1.404 0.134-1.952 0.005-0.546-0.139-0.968-0.424-1.265-0.855v0c-0.278-0.404-0.363-0.82-0.256-1.248 0.108-0.428 0.461-0.849 1.062-1.262v0l10.299-7.092c0.235-0.162 0.41-0.21 0.527-0.146 0.121 0.07 0.252 0.209 0.395 0.416v0l2.289 3.324c0.124 0.18 0.231 0.295 0.322 0.345 0.082 0.048 0.212 0.011 0.393-0.113v0l0.786-0.541c0.213-0.147 0.327-0.273 0.341-0.381 0.015-0.107-0.045-0.258-0.18-0.455v0l-2.306-3.348c-0.132-0.191-0.208-0.355-0.231-0.493-0.019-0.132 0.079-0.271 0.292-0.418v0l3.316-2.283c0.295-0.203 0.352-0.435 0.171-0.697v0l-0.564-0.819c-0.15-0.218-0.272-0.331-0.366-0.339-0.099-0.004-0.249 0.03-0.448 0.103v0c-1.012 0.399-1.833 0.691-2.463 0.875-0.63 0.184-1.141 0.247-1.535 0.189-0.39-0.053-0.74-0.227-1.048-0.522-0.308-0.295-0.648-0.713-1.019-1.253v0c-0.132-0.191-0.235-0.301-0.311-0.329-0.07-0.032-0.201 0.018-0.392 0.149v0l-0.819 0.564c-0.196 0.135-0.298 0.257-0.303 0.366-0.004 0.099 0.067 0.255 0.214 0.468v0l1.234 1.793c0.124 0.18 0.17 0.334 0.137 0.461-0.028 0.124-0.131 0.247-0.312 0.372v0l-10.921 7.52c-0.824 0.567-1.359 1.286-1.605 2.155-0.25 0.864-0.001 1.839 0.747 2.925v0c0.541 0.786 1.155 1.361 1.84 1.726 0.686 0.365 1.412 0.561 2.178 0.588 0.761 0.031 1.512-0.059 2.252-0.271z" fill="#a5b68d" data-fill-palette-color="primary"></path><path d="M258.604 93.497v0c-1.601 0.601-2.963 1.459-4.088 2.574-1.122 1.122-1.87 2.429-2.244 3.921-0.372 1.499-0.234 3.11 0.412 4.835v0c0.545 1.452 1.259 2.592 2.144 3.421 0.884 0.829 1.89 1.396 3.017 1.703 1.127 0.306 2.334 0.402 3.622 0.286v0c0.136-0.016 0.223-0.056 0.263-0.12 0.04-0.064 0.027-0.183-0.039-0.357v0l-0.373-0.996c-0.063-0.168-0.141-0.262-0.234-0.283-0.091-0.015-0.206-0.022-0.347-0.019v0c-1.426 0.011-2.692-0.289-3.799-0.9-1.098-0.607-1.904-1.593-2.415-2.957v0c-0.44-1.173-0.467-2.245-0.083-3.218 0.385-0.973 1.058-1.83 2.018-2.573 0.962-0.736 2.07-1.34 3.324-1.81v0c0.192-0.072 0.344-0.073 0.456-0.001 0.103 0.067 0.19 0.194 0.259 0.38v0l4.135 11.019c0.091 0.242 0.177 0.397 0.26 0.465 0.08 0.062 0.235 0.05 0.464-0.036v0c0.813-0.305 1.603-0.69 2.369-1.155 0.771-0.473 1.465-1.028 2.084-1.663 0.612-0.633 1.104-1.349 1.477-2.146 0.373-0.798 0.571-1.676 0.594-2.633 0.032-0.953-0.163-1.991-0.585-3.114v0c-0.691-1.843-1.687-3.214-2.988-4.114-1.294-0.902-2.778-1.385-4.451-1.45-1.671-0.059-3.422 0.254-5.252 0.941zM264.866 104.556l-2.905-7.743c-0.077-0.205-0.099-0.349-0.067-0.432 0.035-0.077 0.139-0.148 0.313-0.213v0c0.906-0.34 1.868-0.503 2.885-0.488 1.021 0.006 1.96 0.245 2.817 0.716 0.859 0.478 1.485 1.241 1.878 2.289v0c0.261 0.695 0.284 1.369 0.069 2.023-0.208 0.652-0.563 1.262-1.064 1.833-0.497 0.562-1.056 1.051-1.678 1.469-0.616 0.415-1.212 0.731-1.789 0.947v0c-0.112 0.042-0.192 0.044-0.242 0.006-0.058-0.042-0.13-0.178-0.217-0.407z" fill="#a5b68d" data-fill-palette-color="primary"></path><path d="M15.737 144.313c0-1.831 1.485-3.316 3.316-3.316 1.831 0 3.316 1.485 3.316 3.316 0 1.831-1.485 3.316-3.316 3.316-1.831 0-3.316-1.485-3.316-3.316z" fill="#a5b68d" data-fill-palette-color="primary"></path><path d="M266.229 144.313c0-1.831 1.485-3.316 3.316-3.316 1.831 0 3.316 1.485 3.316 3.316 0 1.831-1.485 3.316-3.316 3.316-1.831 0-3.316-1.485-3.316-3.316z" fill="#a5b68d" data-fill-palette-color="primary"></path></g><g id="text-1"><path d="M39.331 172.738l0.85 2.123c0.165 0.412 0.232 0.696 0.201 0.851-0.037 0.158-0.261 0.319-0.674 0.484v0l-20.856 8.346c-0.4 0.16-0.672 0.201-0.818 0.124-0.145-0.077-0.3-0.322-0.465-0.735v0l-0.772-1.929c-0.108-0.271-0.223-0.46-0.345-0.568-0.116-0.111-0.327-0.105-0.635 0.018v0l-0.637 0.255c-0.295 0.118-0.46 0.241-0.494 0.37-0.031 0.119 0.015 0.333 0.138 0.64v0l3.435 8.582c0.118 0.295 0.235 0.48 0.35 0.556 0.119 0.066 0.333 0.038 0.641-0.085v0l0.526-0.211c0.258-0.103 0.429-0.211 0.513-0.323 0.092-0.108 0.084-0.298-0.024-0.568v0l-1.075-2.686c-0.138-0.345-0.181-0.577-0.129-0.697 0.049-0.127 0.24-0.257 0.572-0.39v0l17.922-7.172c0.874-0.35 1.383-0.45 1.528-0.301 0.151 0.146 0.107 0.418-0.135 0.814v0l-14.917 25.22c-0.107 0.178-0.172 0.347-0.194 0.506-0.014 0.162 0.034 0.379 0.142 0.649v0l0.041 0.102c0.094 0.234 0.23 0.343 0.41 0.328 0.173-0.012 0.368-0.062 0.583-0.147v0l23.219-9.292c0.394-0.158 0.663-0.208 0.806-0.152 0.144 0.057 0.29 0.269 0.438 0.639v0l0.89 2.224c0.123 0.308 0.251 0.467 0.384 0.478 0.135 0.017 0.351-0.033 0.646-0.151v0l0.655-0.263c0.258-0.103 0.372-0.256 0.342-0.457-0.028-0.196-0.088-0.407-0.18-0.635v0l-3.268-8.168c-0.145-0.363-0.318-0.562-0.517-0.596-0.202-0.041-0.478 0.009-0.829 0.15v0l-0.396 0.159c-0.289 0.116-0.396 0.322-0.32 0.62 0.076 0.298 0.166 0.576 0.27 0.834v0l0.694 1.735c0.15 0.375 0.21 0.64 0.179 0.796-0.039 0.151-0.253 0.305-0.64 0.459v0l-15.661 6.268c-0.708 0.283-1.138 0.359-1.29 0.227-0.153-0.132-0.125-0.375 0.083-0.729v0l12.74-21.297c0.261-0.418 0.425-0.748 0.493-0.99 0.068-0.241-0.035-0.703-0.309-1.386v0l-2.149-5.371c-0.123-0.308-0.251-0.467-0.384-0.478-0.142-0.015-0.363 0.038-0.664 0.159v0l-0.536 0.214c-0.234 0.094-0.382 0.196-0.444 0.307-0.059 0.102-0.037 0.282 0.066 0.54z" fill="#a5b68d" data-fill-palette-color="primary"></path><path d="M47.545 223.573v0c0.755-0.647 1.547-1.23 2.376-1.748 0.835-0.523 1.667-0.901 2.498-1.133 0.84-0.231 1.657-0.251 2.451-0.058 0.798 0.198 1.535 0.692 2.212 1.481v0c0.901 1.052 1.272 2.131 1.112 3.237-0.155 1.102-0.66 2.198-1.516 3.288-0.855 1.09-1.878 2.146-3.07 3.169v0c-0.755 0.647-1.547 1.23-2.377 1.748-0.835 0.523-1.672 0.9-2.512 1.132-0.831 0.232-1.645 0.249-2.443 0.051-0.793-0.193-1.529-0.684-2.206-1.474v0c-0.901-1.052-1.274-2.128-1.119-3.23 0.16-1.106 0.668-2.204 1.523-3.294 0.855-1.09 1.878-2.146 3.071-3.169zM44.365 221.023v0c-1.354 1.16-2.381 2.481-3.083 3.964-0.711 1.482-0.973 3.029-0.788 4.641 0.186 1.612 0.945 3.196 2.278 4.751v0c1.328 1.55 2.782 2.534 4.362 2.951 1.585 0.413 3.204 0.352 4.857-0.183 1.654-0.545 3.251-1.477 4.79-2.796v0c1.349-1.156 2.378-2.474 3.09-3.956 0.707-1.487 0.967-3.037 0.781-4.649-0.186-1.612-0.943-3.193-2.271-4.743v0c-1.332-1.555-2.791-2.539-4.376-2.952-1.58-0.418-3.197-0.354-4.851 0.19-1.653 0.535-3.25 1.463-4.789 2.782z" fill="#a5b68d" data-fill-palette-color="primary"></path><path d="M76.159 257.488v0c0.142-0.104 0.207-0.2 0.195-0.288-0.01-0.079-0.064-0.183-0.16-0.313v0l-0.385-0.513c-0.125-0.181-0.229-0.276-0.312-0.284-0.077-0.004-0.208 0.047-0.393 0.154v0c-0.674 0.416-1.3 0.66-1.878 0.733-0.578 0.073-1.094-0.045-1.549-0.354v0c-0.417-0.283-0.657-0.649-0.719-1.1-0.059-0.456 0.125-1 0.552-1.63v0l7.295-10.762c0.164-0.241 0.314-0.351 0.452-0.331 0.141 0.016 0.322 0.098 0.541 0.247v0l3.473 2.354c0.186 0.126 0.331 0.196 0.434 0.21 0.105 0.023 0.222-0.062 0.352-0.254v0l0.557-0.823c0.149-0.219 0.208-0.383 0.178-0.492-0.021-0.11-0.136-0.236-0.345-0.377v0l-3.505-2.376c-0.197-0.134-0.332-0.261-0.402-0.381-0.067-0.125-0.026-0.298 0.122-0.517v0l2.348-3.464c0.208-0.307 0.175-0.554-0.099-0.74v0l-0.855-0.58c-0.23-0.156-0.393-0.218-0.487-0.186-0.096 0.023-0.224 0.112-0.385 0.268v0c-0.831 0.766-1.517 1.358-2.057 1.776-0.545 0.415-1.017 0.668-1.414 0.758-0.401 0.096-0.806 0.062-1.215-0.103-0.405-0.17-0.893-0.449-1.463-0.836v0c-0.197-0.134-0.339-0.202-0.426-0.204-0.081 0.001-0.188 0.101-0.322 0.298v0l-0.575 0.847c-0.145 0.214-0.199 0.37-0.16 0.468 0.04 0.107 0.169 0.235 0.388 0.383v0l1.876 1.272c0.186 0.126 0.29 0.257 0.311 0.391 0.012 0.136-0.045 0.297-0.171 0.484v0l-7.736 11.412c-0.584 0.861-0.831 1.758-0.743 2.691 0.088 0.933 0.7 1.784 1.836 2.553v0c0.817 0.554 1.628 0.875 2.432 0.964 0.806 0.098 1.582 0.016 2.329-0.247 0.752-0.259 1.447-0.628 2.085-1.108z" fill="#a5b68d" data-fill-palette-color="primary"></path><path d="M103.109 245.352v0c-0.232 0.578-0.223 1.16 0.026 1.746 0.25 0.586 0.664 0.995 1.243 1.227v0c0.584 0.235 1.169 0.227 1.755-0.023 0.58-0.253 0.986-0.668 1.218-1.246v0c0.237-0.59 0.233-1.174-0.014-1.751-0.253-0.58-0.671-0.987-1.255-1.222v0c-0.578-0.232-1.159-0.226-1.742 0.017-0.584 0.244-0.994 0.661-1.231 1.252zM97.67 252.808l2.389 0.959c0.283 0.114 0.367 0.312 0.254 0.595v0l-5.451 13.568c-0.074 0.184-0.144 0.306-0.211 0.365-0.064 0.053-0.198 0.038-0.401-0.043v0l-2.186-0.878c-0.209-0.084-0.372-0.114-0.489-0.09-0.108 0.021-0.211 0.151-0.307 0.391v0l-0.396 0.987c-0.077 0.191-0.084 0.324-0.021 0.399 0.066 0.084 0.198 0.165 0.395 0.244v0l8.66 3.48c0.16 0.064 0.268 0.072 0.323 0.022 0.053-0.043 0.113-0.147 0.18-0.313v0l0.467-1.162c0.067-0.166 0.077-0.28 0.03-0.342-0.041-0.059-0.144-0.122-0.31-0.189v0l-2.389-0.959c-0.141-0.057-0.224-0.126-0.249-0.208-0.028-0.09-0.011-0.212 0.051-0.365v0l6.281-15.633c0.059-0.148 0.08-0.253 0.063-0.318-0.023-0.066-0.106-0.128-0.247-0.185v0l-5.598-2.249c-0.283-0.114-0.486-0.017-0.61 0.29v0l-0.426 1.061c-0.072 0.178-0.099 0.299-0.082 0.364 0.009 0.068 0.102 0.137 0.28 0.209z" fill="#a5b68d" data-fill-palette-color="primary"></path><path d="M125.358 275.788l1.949-14.22c0.029-0.21 0.079-0.354 0.149-0.431 0.063-0.072 0.197-0.093 0.401-0.066v0l4.224 0.579c0.263 0.036 0.43 0.032 0.504-0.011 0.065-0.038 0.117-0.191 0.153-0.461v0l0.131-0.955c0.038-0.276 0.011-0.447-0.08-0.513-0.098-0.067-0.272-0.117-0.521-0.151v0l-4.127-0.566c-0.204-0.028-0.326-0.085-0.368-0.17-0.047-0.093-0.058-0.232-0.033-0.416v0l0.084-0.611c0.219-1.595 0.534-2.92 0.946-3.974 0.413-1.06 0.96-1.828 1.64-2.303 0.681-0.482 1.524-0.654 2.529-0.517v0c0.985 0.135 1.655 0.344 2.011 0.627 0.363 0.277 0.529 0.531 0.497 0.761v0c-0.034 0.249-0.133 0.457-0.296 0.621-0.156 0.166-0.315 0.348-0.476 0.547-0.162 0.205-0.268 0.495-0.32 0.869v0c-0.073 0.532 0.068 0.993 0.423 1.382 0.36 0.397 0.865 0.64 1.515 0.73v0c0.67 0.092 1.237-0.048 1.703-0.419 0.466-0.371 0.754-0.96 0.864-1.768v0c0.098-0.716-0.071-1.431-0.508-2.146-0.445-0.71-1.112-1.33-2.003-1.86-0.898-0.524-1.981-0.873-3.247-1.047v0c-1.635-0.224-3.05-0.07-4.247 0.462-1.191 0.539-2.153 1.387-2.887 2.544-0.726 1.151-1.202 2.551-1.428 4.198v0l-0.197 1.438c-0.032 0.236-0.079 0.38-0.14 0.432-0.053 0.046-0.195 0.054-0.424 0.023v0l-2.393-0.328c-0.19-0.026-0.325-0.018-0.405 0.024-0.086 0.042-0.142 0.161-0.17 0.358v0l-0.16 1.172c-0.028 0.204-0.012 0.333 0.047 0.388 0.058 0.062 0.18 0.105 0.363 0.13v0l2.433 0.333c0.243 0.033 0.378 0.099 0.404 0.196 0.032 0.105 0.032 0.275 0.001 0.512v0l-1.963 14.319c-0.025 0.184-0.063 0.312-0.113 0.386-0.043 0.068-0.166 0.088-0.369 0.059v0l-2.452-0.336c-0.164-0.022-0.295-0.017-0.394 0.017-0.105 0.032-0.17 0.141-0.195 0.324v0l-0.16 1.172c-0.028 0.204-0.023 0.338 0.015 0.403 0.037 0.072 0.154 0.121 0.351 0.149v0l10.281 1.409c0.23 0.031 0.392 0.017 0.487-0.044 0.101-0.053 0.168-0.198 0.2-0.434v0l0.151-1.103c0.027-0.197-0.036-0.326-0.187-0.387-0.152-0.061-0.317-0.104-0.495-0.128v0l-3.171-0.434c-0.302-0.041-0.474-0.102-0.516-0.181-0.048-0.087-0.052-0.281-0.011-0.584z" fill="#a5b68d" data-fill-palette-color="primary"></path><path d="M151.115 253.265v0c0.044 0.621 0.307 1.141 0.788 1.559 0.481 0.418 1.033 0.604 1.654 0.56v0c0.628-0.044 1.151-0.307 1.569-0.789 0.411-0.481 0.595-1.032 0.55-1.653v0c-0.045-0.635-0.305-1.158-0.779-1.569-0.481-0.411-1.035-0.594-1.663-0.55v0c-0.621 0.044-1.141 0.303-1.559 0.778-0.418 0.475-0.605 1.029-0.56 1.664zM149.487 262.349l2.568-0.182c0.304-0.022 0.467 0.12 0.488 0.424v0l1.033 14.585c0.014 0.198 0.004 0.339-0.029 0.421-0.035 0.076-0.161 0.121-0.379 0.136v0l-2.35 0.167c-0.225 0.016-0.384 0.06-0.479 0.133-0.088 0.066-0.123 0.228-0.105 0.486v0l0.075 1.061c0.015 0.205 0.066 0.327 0.156 0.368 0.096 0.046 0.25 0.062 0.461 0.047v0l9.311-0.66c0.172-0.012 0.272-0.052 0.3-0.121 0.029-0.062 0.037-0.182 0.024-0.36v0l-0.088-1.25c-0.013-0.178-0.053-0.285-0.123-0.32-0.062-0.035-0.183-0.047-0.361-0.034v0l-2.568 0.182c-0.152 0.011-0.257-0.015-0.314-0.078-0.065-0.069-0.103-0.185-0.115-0.35v0l-1.19-16.806c-0.011-0.159-0.039-0.263-0.082-0.313-0.05-0.05-0.151-0.069-0.303-0.059v0l-6.019 0.427c-0.304 0.022-0.444 0.198-0.421 0.528v0l0.081 1.14c0.014 0.192 0.042 0.313 0.085 0.363 0.037 0.057 0.152 0.079 0.344 0.065z" fill="#a5b68d" data-fill-palette-color="primary"></path><path d="M170.961 250.306l2.13-0.829c0.414-0.161 0.698-0.226 0.853-0.193 0.157 0.038 0.316 0.264 0.477 0.678v0l8.15 20.934c0.156 0.401 0.195 0.674 0.116 0.819-0.079 0.144-0.325 0.297-0.739 0.458v0l-1.936 0.754c-0.272 0.106-0.462 0.219-0.571 0.34-0.112 0.115-0.108 0.326 0.012 0.635v0l0.249 0.639c0.115 0.296 0.237 0.462 0.365 0.498 0.119 0.032 0.333-0.012 0.641-0.133v0l8.615-3.353c0.296-0.115 0.483-0.231 0.559-0.346 0.068-0.119 0.041-0.332-0.079-0.641v0l-0.206-0.528c-0.101-0.259-0.207-0.431-0.318-0.516-0.107-0.093-0.297-0.087-0.569 0.019v0l-2.695 1.049c-0.346 0.135-0.579 0.176-0.699 0.123-0.126-0.05-0.254-0.242-0.384-0.576v0l-7.003-17.988c-0.341-0.877-0.437-1.387-0.287-1.531 0.148-0.15 0.419-0.103 0.813 0.142v0l25.078 15.154c0.177 0.109 0.345 0.175 0.504 0.199 0.162 0.015 0.379-0.03 0.651-0.136v0l0.102-0.04c0.235-0.091 0.345-0.227 0.332-0.407-0.011-0.174-0.058-0.368-0.142-0.584v0l-9.073-23.306c-0.154-0.395-0.202-0.665-0.144-0.808 0.058-0.143 0.272-0.287 0.643-0.431v0l2.232-0.869c0.309-0.12 0.469-0.247 0.482-0.38 0.018-0.135-0.03-0.351-0.146-0.647v0l-0.256-0.658c-0.101-0.259-0.252-0.375-0.454-0.346-0.196 0.026-0.408 0.084-0.637 0.174v0l-8.197 3.191c-0.364 0.142-0.565 0.312-0.601 0.511-0.042 0.201 0.005 0.478 0.142 0.83v0l0.155 0.399c0.113 0.29 0.319 0.399 0.617 0.325 0.298-0.074 0.577-0.161 0.837-0.262v0l1.741-0.678c0.377-0.147 0.642-0.204 0.797-0.172 0.151 0.041 0.302 0.256 0.454 0.645v0l6.119 15.719c0.276 0.71 0.348 1.141 0.215 1.292-0.133 0.151-0.376 0.121-0.728-0.089v0l-21.176-12.941c-0.416-0.265-0.744-0.432-0.985-0.502-0.241-0.07-0.704 0.029-1.389 0.296v0l-5.391 2.099c-0.309 0.12-0.469 0.247-0.481 0.379-0.016 0.141 0.035 0.363 0.152 0.666v0l0.209 0.537c0.091 0.235 0.192 0.384 0.303 0.448 0.102 0.06 0.282 0.04 0.541-0.062z" fill="#a5b68d" data-fill-palette-color="primary"></path><path d="M221.871 242.572v0c-0.64-0.761-1.215-1.558-1.727-2.393-0.515-0.839-0.885-1.676-1.109-2.509-0.223-0.842-0.235-1.659-0.035-2.451 0.205-0.796 0.706-1.529 1.502-2.198v0c1.06-0.891 2.142-1.252 3.247-1.081 1.1 0.166 2.192 0.681 3.274 1.546 1.082 0.865 2.129 1.898 3.139 3.101v0c0.64 0.761 1.215 1.558 1.727 2.392 0.515 0.839 0.885 1.68 1.108 2.523 0.224 0.833 0.234 1.648 0.028 2.443-0.2 0.792-0.698 1.522-1.494 2.192v0c-1.06 0.891-2.14 1.254-3.241 1.089-1.105-0.171-2.198-0.689-3.28-1.554-1.082-0.865-2.129-1.898-3.139-3.1zM219.291 245.728v0c1.147 1.364 2.459 2.404 3.935 3.12 1.475 0.725 3.02 1.002 4.634 0.831 1.614-0.171 3.204-0.915 4.771-2.233v0c1.562-1.314 2.559-2.758 2.992-4.334 0.428-1.581 0.382-3.2-0.137-4.859-0.529-1.659-1.446-3.264-2.751-4.816v0c-1.143-1.359-2.452-2.401-3.928-3.127-1.48-0.721-3.027-0.995-4.641-0.824-1.614 0.171-3.202 0.913-4.764 2.227v0c-1.567 1.318-2.565 2.767-2.993 4.348-0.433 1.576-0.384 3.193 0.145 4.852 0.52 1.658 1.432 3.263 2.737 4.815z" fill="#a5b68d" data-fill-palette-color="primary"></path><path d="M256.052 214.279v0c-0.102-0.143-0.198-0.209-0.286-0.198-0.079 0.01-0.184 0.062-0.314 0.157v0l-0.517 0.38c-0.182 0.124-0.278 0.227-0.286 0.309-0.005 0.077 0.045 0.208 0.15 0.394v0c0.409 0.678 0.648 1.306 0.715 1.885 0.067 0.578-0.056 1.094-0.368 1.546v0c-0.287 0.414-0.655 0.65-1.107 0.709-0.457 0.055-0.999-0.135-1.626-0.569v0l-10.692-7.396c-0.24-0.166-0.348-0.318-0.326-0.455 0.017-0.141 0.101-0.321 0.252-0.539v0l2.386-3.45c0.128-0.185 0.2-0.329 0.215-0.432 0.024-0.104-0.06-0.223-0.251-0.354v0l-0.817-0.566c-0.218-0.151-0.381-0.211-0.491-0.182-0.111 0.02-0.238 0.134-0.38 0.341v0l-2.409 3.482c-0.136 0.196-0.264 0.329-0.385 0.399-0.126 0.066-0.298 0.023-0.516-0.127v0l-3.442-2.381c-0.305-0.211-0.552-0.18-0.74 0.092v0l-0.588 0.85c-0.158 0.229-0.222 0.39-0.191 0.485 0.022 0.096 0.11 0.225 0.264 0.388v0c0.758 0.838 1.343 1.529 1.757 2.073 0.41 0.549 0.658 1.023 0.744 1.422 0.092 0.402 0.054 0.807-0.114 1.214-0.174 0.403-0.457 0.888-0.85 1.455v0c-0.136 0.196-0.205 0.337-0.208 0.424 0 0.081 0.099 0.189 0.295 0.325v0l0.842 0.582c0.213 0.147 0.368 0.202 0.466 0.165 0.107-0.039 0.236-0.167 0.387-0.385v0l1.289-1.864c0.128-0.185 0.26-0.288 0.394-0.307 0.136-0.011 0.297 0.048 0.482 0.176v0l11.339 7.844c0.856 0.592 1.75 0.848 2.683 0.768 0.933-0.08 1.79-0.683 2.571-1.811v0c0.562-0.812 0.891-1.62 0.987-2.424 0.106-0.805 0.031-1.582-0.225-2.331-0.252-0.754-0.615-1.453-1.089-2.094z" fill="#a5b68d" data-fill-palette-color="primary"></path><path d="M258.977 196.101v0c1.666 0.633 3.321 0.896 4.963 0.79 1.646-0.098 3.128-0.602 4.445-1.513 1.319-0.917 2.319-2.27 2.999-4.06v0c0.572-1.505 0.797-2.883 0.677-4.134-0.118-1.257-0.513-2.392-1.184-3.406-0.665-1.011-1.538-1.913-2.619-2.706v0c-0.116-0.087-0.214-0.117-0.295-0.091-0.081 0.026-0.154 0.126-0.22 0.299v0l-0.392 1.031c-0.068 0.18-0.071 0.31-0.01 0.39 0.058 0.072 0.142 0.157 0.254 0.256v0c1.126 0.973 1.909 2.075 2.349 3.306 0.446 1.233 0.401 2.555-0.135 3.968v0c-0.464 1.22-1.183 2.078-2.158 2.572-0.968 0.497-2.081 0.702-3.338 0.614-1.253-0.079-2.533-0.367-3.84-0.863v0c-0.204-0.078-0.322-0.179-0.352-0.304-0.034-0.134-0.016-0.293 0.054-0.479v0l4.348-11.448c0.094-0.248 0.133-0.424 0.117-0.53-0.02-0.114-0.148-0.216-0.384-0.305v0c-0.842-0.32-1.726-0.56-2.651-0.72-0.925-0.16-1.844-0.204-2.757-0.133-0.922 0.075-1.799 0.295-2.632 0.659-0.842 0.368-1.602 0.915-2.282 1.643-0.674 0.729-1.231 1.673-1.671 2.831v0c-0.727 1.914-0.894 3.669-0.501 5.265 0.387 1.593 1.215 2.988 2.483 4.186 1.259 1.201 2.837 2.162 4.732 2.882zM261.701 183.164l-3.053 8.037c-0.082 0.217-0.166 0.344-0.252 0.383-0.083 0.032-0.211 0.015-0.385-0.05v0c-0.942-0.358-1.807-0.888-2.596-1.592-0.787-0.71-1.352-1.545-1.696-2.505-0.347-0.954-0.312-1.979 0.105-3.076v0c0.273-0.719 0.72-1.261 1.341-1.627 0.613-0.363 1.307-0.595 2.083-0.698 0.774-0.096 1.545-0.094 2.315 0.008 0.77 0.101 1.452 0.264 2.047 0.49v0c0.118 0.045 0.185 0.102 0.201 0.172 0.016 0.07-0.021 0.223-0.11 0.458z" fill="#a5b68d" data-fill-palette-color="primary"></path></g></svg></g></svg></g></svg></g></svg></g><defs></defs></svg><rect width="280" height="280" fill="none" stroke="none" visibility="hidden"></rect></g></svg></g></svg>